# Blender v2.80 (sub 75) OBJ File: 'nave.blend'
# www.blender.org
mtllib nave.mtl
o Plane_Plane.002
v -2.381947 -2.381946 -0.000000
v 0.676660 -0.600316 0.000000
v -1.744125 -0.607841 -0.000000
v -0.657487 -0.586863 -0.000000
v 0.438277 -0.169688 0.000000
v -0.434483 -0.179305 -0.000000
v 0.238342 -0.038962 0.000000
v -0.226859 -0.040889 -0.000000
v 2.390640 -2.370873 -0.000000
v 1.817209 -0.589243 0.000000
v 2.116023 -0.740885 -0.000000
v 3.916704 1.643132 0.000000
v -2.102900 -0.734241 -0.000000
v -3.883484 1.637821 0.000000
v -3.391830 1.478366 0.000000
v -0.136283 2.182627 0.000000
v 3.438338 1.523540 0.000000
v 0.222655 2.190152 0.000000
v 3.535529 -2.444559 2.168255
v 3.495665 -1.846602 2.168255
v -3.856909 -2.408522 -0.000000
v -3.843621 -1.863716 -0.000000
v -1.744125 -0.607841 -0.000000
v -2.381947 -2.381946 -0.000000
v 0.676660 -0.600316 0.000000
v -0.657487 -0.586863 -0.000000
v 0.438277 -0.169688 0.000000
v -0.434483 -0.179305 -0.000000
v 0.238342 -0.038962 0.000000
v -0.226859 -0.040889 -0.000000
v 2.390640 -2.370873 -0.000000
v 1.817209 -0.589243 0.000000
v 2.116023 -0.740885 -0.000000
v 3.916704 1.643132 0.000000
v -3.883484 1.637821 0.000000
v -2.102900 -0.734241 -0.000000
v -3.391830 1.478366 0.000000
v -0.136283 2.182627 0.000000
v 0.222655 2.190152 0.000000
v 3.438338 1.523540 0.000000
v -3.843621 -1.863716 -0.000000
v -3.856909 -2.408522 -0.000000
v -1.744125 -0.607841 -0.000000
v -2.381947 -2.381946 -0.000000
v 0.676660 -0.600316 -0.926595
v -0.657487 -0.586863 -0.926595
v 0.438277 -0.169688 -0.926595
v -0.434483 -0.179305 -0.926595
v 0.238342 -0.038962 -0.926595
v -0.226859 -0.040889 -0.926595
v 2.390640 -2.370873 -0.000000
v 1.817209 -0.589243 0.000000
v 2.116023 -0.740885 -0.000000
v 3.916704 1.643132 0.000000
v -3.883484 1.637821 0.000000
v -2.102900 -0.734241 -0.000000
v -3.391830 1.478366 0.000000
v -0.136283 2.182627 0.000000
v 0.222655 2.190152 0.000000
v 3.438338 1.523540 0.000000
v 3.909895 -2.388590 -0.000000
v 3.870032 -1.790633 -0.000000
v -4.028252 -1.880953 2.194183
v -4.041540 -2.425759 2.194183
v -1.744125 -0.607841 -0.000000
v -2.381947 -2.381946 -0.000000
v -0.657487 -0.586863 -0.926595
v 0.404954 -0.147900 -0.887575
v -0.436406 -0.212948 -0.897330
v 0.205184 -0.055543 -0.897330
v -0.194662 -0.057950 -0.897330
v 2.390640 -2.370873 -0.000000
v 2.116023 -0.740885 -0.000000
v 3.229863 1.413507 0.029265
v -3.192511 1.409414 0.029265
v -2.102900 -0.734241 -0.000000
v -3.391830 1.478366 0.000000
v -0.136283 2.182627 0.000000
v 0.222655 2.190152 0.000000
v 3.438338 1.523540 0.000000
v 3.533592 -2.452837 2.166912
v 3.493729 -1.854880 2.166912
v -3.812323 -1.807869 2.223448
v -4.041540 -2.425759 2.194183
v 0.676660 -0.600316 -0.692477
v 0.438277 -0.169688 -0.692477
v 1.817209 -0.589243 0.234118
v 3.438338 1.523540 0.234118
v -1.744125 -0.607841 0.234117
v -2.381947 -2.381946 0.234117
v 0.676660 -0.600316 -0.692477
v -0.657487 -0.586863 -0.692477
v 0.354846 -0.200640 -0.715889
v -0.327311 -0.211746 -0.721742
v 0.194131 -0.061071 -0.731497
v -0.183929 -0.063637 -0.731497
v 2.390640 -2.370873 0.234117
v 1.817209 -0.589243 0.234118
v 2.116023 -0.740885 0.234118
v 2.967426 1.134461 0.204853
v -2.925091 1.128707 0.204853
v -2.102900 -0.734241 0.234118
v -2.574622 1.248042 0.195098
v -0.136283 2.182627 0.234118
v 0.222655 2.190152 0.234118
v 2.833736 1.342769 0.204853
v 3.273739 -2.350224 2.362010
v 3.208038 -1.779581 2.362010
v -3.740347 -1.783508 2.389281
v -3.793499 -2.330529 2.389281
v -2.102900 -0.734241 -0.000000
v -2.381947 -2.381946 -0.000000
v -3.843621 -1.863716 -0.000000
v -3.856909 -2.408522 -0.000000
v -2.102900 -0.734241 -0.000000
v -2.381947 -2.381946 -0.000000
v -3.843621 -1.863716 -0.000000
v -3.856909 -2.408522 -0.000000
v -2.102900 -0.734241 -0.000000
v -2.381947 -2.381946 -0.000000
v -3.843621 -1.863716 -0.000000
v -3.856909 -2.408522 -0.000000
v 3.909895 -2.388590 -0.000000
v 3.870032 -1.790633 -0.000000
v 2.116023 -0.740885 -0.000000
v 3.533592 -2.452837 2.166912
v 3.493729 -1.854880 2.166912
v 2.116023 -0.740885 -0.000000
vt 1.000000 0.000000
vt 0.000000 0.000000
vt 0.000000 0.000000
vt 1.000000 0.000000
vt 0.000000 0.000000
vt 0.000000 1.000000
vt 0.000000 1.000000
vt 0.000000 0.000000
vt 0.000000 1.000000
vt 0.000000 1.000000
vt 1.000000 0.000000
vt 1.000000 0.000000
vt 0.000000 0.000000
vt 0.000000 0.000000
vt 0.000000 0.000000
vt 0.000000 0.000000
vt 0.000000 0.000000
vt 1.000000 0.000000
vt 1.000000 0.000000
vt 0.000000 0.000000
vt 0.000000 0.000000
vt 0.000000 0.000000
vt 0.000000 0.000000
vt 0.000000 1.000000
vt 0.000000 1.000000
vt 0.000000 1.000000
vt 0.000000 1.000000
vt 1.000000 0.000000
vt 1.000000 0.000000
vt 0.000000 0.000000
vt 0.000000 0.000000
vt 0.000000 0.000000
vt 1.000000 1.000000
vt 1.000000 1.000000
vt 1.000000 0.000000
vt 1.000000 0.000000
vt 1.000000 0.000000
vt 1.000000 0.000000
vt 0.000000 0.000000
vt 0.000000 0.000000
vt 1.000000 1.000000
vt 1.000000 1.000000
vt 1.000000 0.000000
vt 1.000000 0.000000
vt 1.000000 1.000000
vt 1.000000 1.000000
vt 0.000000 0.000000
vt 0.000000 1.000000
vt 1.000000 1.000000
vt 1.000000 0.000000
vt 1.000000 1.000000
vt 1.000000 0.000000
vt 1.000000 1.000000
vt 1.000000 0.000000
vt 1.000000 0.000000
vt 0.000000 0.000000
vt 1.000000 0.000000
vt 0.000000 0.000000
vt 0.000000 0.000000
vt 0.000000 1.000000
vt 0.000000 1.000000
vt 0.000000 1.000000
vt 1.000000 0.000000
vt 1.000000 0.000000
vt 0.000000 0.000000
vt 0.000000 0.000000
vt 1.000000 0.000000
vt 1.000000 0.000000
vt 1.000000 0.000000
vt 1.000000 0.000000
vt 1.000000 0.000000
vt 1.000000 0.000000
vt 1.000000 0.000000
vt 1.000000 0.000000
vt 1.000000 0.000000
vt 1.000000 0.000000
vt 0.000000 0.000000
vt 0.000000 0.000000
vt 0.000000 0.000000
vt 0.000000 0.000000
vt 1.000000 0.000000
vt 1.000000 0.000000
vt 1.000000 1.000000
vt 1.000000 1.000000
vt 0.000000 0.000000
vt 0.000000 0.000000
vt 0.000000 0.000000
vt 0.000000 0.000000
vt 0.000000 1.000000
vt 0.000000 1.000000
vt 0.000000 1.000000
vt 0.000000 1.000000
vt 1.000000 1.000000
vt 1.000000 1.000000
vt 1.000000 1.000000
vt 1.000000 1.000000
vt 0.000000 0.000000
vt 0.000000 0.000000
vt 0.000000 0.000000
vt 0.000000 0.000000
vt 0.000000 1.000000
vt 0.000000 0.000000
vt 0.000000 1.000000
vt 0.000000 0.000000
vt 0.000000 0.000000
vt 0.000000 0.000000
vt 0.000000 0.000000
vt 0.000000 1.000000
vt 0.000000 1.000000
vt 1.000000 0.000000
vt 0.000000 0.000000
vt 1.000000 0.000000
vt 0.000000 0.000000
vt 0.000000 0.000000
vt 1.000000 0.000000
vt 1.000000 0.000000
vt 0.000000 0.000000
vt 0.000000 0.000000
vt 0.000000 0.000000
vt 0.000000 0.000000
vt 0.000000 0.000000
vt 0.000000 0.000000
vt 0.000000 0.000000
vt 0.000000 0.000000
vt 0.000000 0.000000
vt 0.000000 0.000000
vt 0.000000 0.000000
vt 0.000000 0.000000
vn -0.0000 -0.0000 1.0000
vn -0.8718 -0.1231 0.4741
vn 0.0000 0.0000 -1.0000
vn -0.3537 -0.1378 -0.9252
vn 0.1466 -0.3435 -0.9276
vn -0.7839 0.1045 -0.6120
vn 0.2320 0.7284 0.6447
vn 0.5141 0.8248 0.2355
vn -0.7934 0.6087 0.0000
vn 0.1677 -0.9785 0.1202
vn -0.2041 -0.7738 -0.5997
vn -0.0064 0.9994 0.0338
vn -0.5000 0.8652 0.0373
vn 0.2865 -0.9581 0.0000
vn -0.2275 0.7277 0.6471
vn -0.7878 0.5798 0.2081
vn -0.7646 0.1697 0.6217
vn 0.8662 -0.4224 0.2671
vn 0.0569 -0.0429 0.9975
vn -0.1354 0.0033 0.9908
vn -0.7865 0.4303 0.4430
vn -0.0129 0.0886 0.9960
vn -0.3375 0.9227 0.1861
vn -0.0043 0.8670 0.4983
vn 0.4455 0.8145 0.3716
vn 0.0130 0.0880 0.9960
vn -0.0562 -0.0422 0.9975
vn -0.3850 0.5897 0.7100
vn 0.5092 0.3122 -0.8020
vn 0.3537 0.1378 0.9252
vn -0.0028 0.0679 0.9977
vn -0.0066 0.0874 0.9961
vn -0.1466 0.3435 0.9276
vn 0.0039 0.0077 1.0000
vn -0.0028 0.0079 1.0000
vn 0.0346 -0.0199 0.9992
vn -0.9105 -0.1408 0.3889
vn 0.8234 -0.1246 0.5536
vn -0.2250 -0.1245 0.9664
vn 0.0626 -0.0480 -0.9969
vn -0.8659 -0.4132 0.2821
vn -0.5998 0.7692 0.2206
vn 0.5924 0.0535 0.8039
vn -0.0193 0.9998 0.0000
vn -0.0097 1.0000 0.0000
vn 0.8749 0.4843 0.0000
vn 0.0023 -1.0000 0.0000
vn -0.2279 -0.9692 0.0937
vn 0.1950 -0.6601 -0.7254
vn 0.4725 0.8662 0.1625
vn -0.0616 0.9907 0.1212
usemtl Material.001
s off
f 10/1/1 9/2/1 11/3/1 12/4/1
f 1/5/1 3/6/1 14/7/1 13/8/1
f 14/7/1 3/6/1 15/9/1 16/10/1
f 10/1/1 12/4/1 18/11/1 17/12/1
f 11/3/2 9/2/2 19/13/2 20/14/2
f 21/15/1 1/5/1 116/16/1 118/17/1
f 32/18/3 34/19/3 33/20/3 31/21/3
f 24/22/3 36/23/3 35/24/3 23/25/3
f 35/24/3 38/26/3 37/27/3 23/25/3
f 32/18/3 40/28/3 39/29/3 34/19/3
f 24/22/1 42/30/1 114/31/1 112/32/1
f 4/33/1 26/34/1 23/25/1 3/6/1
f 1/5/1 24/22/1 31/21/1 9/2/1
f 15/9/1 37/27/1 38/26/1 16/10/1
f 10/1/1 32/18/1 25/35/1 2/36/1
f 2/36/1 25/35/1 27/37/1 5/38/1
f 3/6/1 23/25/1 37/27/1 15/9/1
f 11/3/1 33/20/1 34/19/1 12/4/1
f 22/39/1 41/40/1 42/30/1 21/15/1
f 6/41/1 28/42/1 26/34/1 4/33/1
f 16/10/1 38/26/1 35/24/1 14/7/1
f 13/8/1 36/23/1 41/40/1 22/39/1
f 7/43/1 29/44/1 30/45/1 8/46/1
f 18/11/1 39/29/1 40/28/1 17/12/1
f 21/15/1 42/30/1 24/22/1 1/5/1
f 5/38/1 27/37/1 29/44/1 7/43/1
f 12/4/1 34/19/1 39/29/1 18/11/1
f 14/7/1 35/24/1 36/23/1 13/8/1
f 8/46/1 30/45/1 28/42/1 6/41/1
f 17/12/1 40/28/1 32/18/1 10/1/1
f 44/47/4 43/48/4 46/49/4 45/50/4
f 46/49/3 48/51/3 47/52/3 45/50/3
f 48/51/3 50/53/3 49/54/3 47/52/3
f 45/50/5 52/55/5 51/56/5 44/47/5
f 52/55/3 54/57/3 53/58/3 51/56/3
f 44/47/3 56/59/3 55/60/3 43/48/3
f 55/60/3 58/61/3 57/62/3 43/48/3
f 52/55/3 60/63/3 59/64/3 54/57/3
f 44/47/6 64/65/6 63/66/6 56/59/6
f 74/67/7 79/68/7 105/69/7 100/70/7
f 68/71/8 70/72/8 95/73/8 93/74/8
f 60/63/9 52/55/9 87/75/9 88/76/9
f 84/77/10 66/78/10 90/79/10 110/80/10
f 79/68/11 80/81/11 106/82/11 105/69/11
f 70/72/12 71/83/12 96/84/12 95/73/12
f 76/85/13 83/86/13 109/87/13 102/88/13
f 80/81/14 60/63/14 88/76/14 106/82/14
f 78/89/15 75/90/15 101/91/15 104/92/15
f 69/93/16 67/94/16 92/95/16 94/96/16
f 81/97/1 61/98/1 123/99/1 126/100/1
f 46/49/1 43/48/1 65/101/1 67/94/1
f 44/47/1 51/56/1 72/102/1 66/78/1
f 57/62/1 58/61/1 78/89/1 77/103/1
f 83/86/17 84/77/17 110/80/17 109/87/17
f 82/104/1 81/97/1 126/100/1 127/105/1
f 73/106/18 74/67/18 100/70/18 99/107/18
f 43/48/1 57/62/1 77/103/1 65/101/1
f 53/58/19 54/57/19 74/67/19 73/106/19
f 63/66/20 64/65/20 84/77/20 83/86/20
f 48/51/21 46/49/21 67/94/21 69/93/21
f 58/61/22 55/60/22 75/90/22 78/89/22
f 56/59/23 63/66/23 83/86/23 76/85/23
f 49/54/24 50/53/24 71/83/24 70/72/24
f 59/64/1 60/63/1 80/81/1 79/68/1
f 64/65/1 44/47/1 66/78/1 84/77/1
f 47/52/25 49/54/25 70/72/25 68/71/25
f 54/57/26 59/64/26 79/68/26 74/67/26
f 55/60/27 56/59/27 76/85/27 75/90/27
f 50/53/28 48/51/28 69/93/28 71/83/28
f 65/101/29 77/103/29 103/108/29 89/109/29
f 90/79/30 91/110/30 92/95/30 89/109/30
f 92/95/31 91/110/31 93/74/31 94/96/31
f 94/96/32 93/74/32 95/73/32 96/84/32
f 91/110/33 90/79/33 97/111/33 98/112/33
f 98/112/34 97/111/34 99/107/34 100/70/34
f 90/79/35 89/109/35 101/91/35 102/88/35
f 101/91/36 89/109/36 103/108/36 104/92/36
f 98/112/1 100/70/1 105/69/1 106/82/1
f 99/107/37 97/111/37 107/113/37 108/114/37
f 90/79/38 102/88/38 109/87/38 110/80/38
f 87/75/1 85/115/1 91/110/1 98/112/1
f 85/115/39 86/116/39 93/74/39 91/110/39
f 88/76/40 87/75/40 98/112/40 106/82/40
f 75/90/41 76/85/41 102/88/41 101/91/41
f 71/83/42 69/93/42 94/96/42 96/84/42
f 81/97/43 82/104/43 108/114/43 107/113/43
f 67/94/44 65/101/44 89/109/44 92/95/44
f 52/55/45 45/50/45 85/115/45 87/75/45
f 45/50/46 47/52/46 86/116/46 85/115/46
f 66/78/47 72/102/47 97/111/47 90/79/47
f 72/102/48 81/97/48 107/113/48 97/111/48
f 77/103/49 78/89/49 104/92/49 103/108/49
f 82/104/50 73/106/50 99/107/50 108/114/50
f 47/52/51 68/71/51 93/74/51 86/116/51
f 42/30/1 41/40/1 113/117/1 114/31/1
f 36/23/1 24/22/1 112/32/1 111/118/1
f 41/40/1 36/23/1 111/118/1 113/117/1
f 115/119/1 117/120/1 121/121/1 119/122/1
f 22/39/1 21/15/1 118/17/1 117/120/1
f 1/5/1 13/8/1 115/119/1 116/16/1
f 13/8/1 22/39/1 117/120/1 115/119/1
f 116/16/1 115/119/1 119/122/1 120/123/1
f 118/17/1 116/16/1 120/123/1 122/124/1
f 117/120/1 118/17/1 122/124/1 121/121/1
f 53/58/1 73/106/1 128/125/1 125/126/1
f 62/127/1 53/58/1 125/126/1 124/128/1
f 61/98/1 62/127/1 124/128/1 123/99/1
f 73/106/1 82/104/1 127/105/1 128/125/1
