# Blender v2.80 (sub 75) OBJ File: ''
# www.blender.org
mtllib missel.mtl
o Plane
v -0.832694 0.050349 0.146272
v 0.992155 0.053797 0.381707
v -0.913908 -0.017895 -0.371439
v 1.009478 -0.004830 -0.542911
v -1.619986 -0.005154 -0.036110
v -1.600276 -0.037533 -0.173604
v -0.969390 0.713664 -0.479714
v -1.022221 0.615628 0.196959
v 0.924988 0.764423 0.323875
v 0.942311 0.705796 -0.600743
v -1.672052 0.582068 -0.184881
v -1.691762 0.614448 -0.047387
vt 0.079463 0.211319
vt 0.190325 1.000000
vt 1.000000 1.000000
vt 1.000000 0.000000
vt 0.000000 0.000000
vt 0.000000 1.000000
vt 0.015972 0.131995
vt 1.000000 0.000000
vt 1.000000 1.000000
vt 0.053229 0.866263
vt 0.000000 1.000000
vt 0.000000 0.000000
vn 0.0029 -0.9962 0.0875
vn 0.0519 -0.9878 0.1468
vn -0.0365 0.9991 0.0230
vn -0.0934 0.9930 0.0718
vn -0.3211 -0.1134 -0.9402
vn -0.0753 -0.1204 -0.9899
vn -0.0951 -0.0136 0.9954
vn -0.2766 -0.0928 0.9565
vn -0.9866 -0.1164 -0.1140
vn 0.9954 0.0951 0.0126
usemtl Material.001
s off
f 1/1/1 3/2/1 4/3/1 2/4/1
f 1/1/2 5/5/2 6/6/2 3/2/2
f 8/7/3 9/8/3 10/9/3 7/10/3
f 8/7/4 7/10/4 11/11/4 12/12/4
f 3/2/5 6/6/5 11/11/5 7/10/5
f 4/3/6 3/2/6 7/10/6 10/9/6
f 1/1/7 2/4/7 9/8/7 8/7/7
f 5/5/8 1/1/8 8/7/8 12/12/8
f 6/6/9 5/5/9 12/12/9 11/11/9
f 2/4/10 4/3/10 10/9/10 9/8/10
